<svg xmlns="http://www.w3.org/2000/svg" xmlns:xlink="http://www.w3.org/1999/xlink" width="474.41" height="371.909" viewBox="0 0 474.41 371.909"><defs><style>.a{fill:#fafafa;}.b{fill:#ebebeb;}.c{fill:#f2f5f7;}.d{fill:#fff;}.e{fill:#37474f;}.f{fill:#349267;}.g,.n{opacity:0.2;}.h{fill:#1fb299;}.i,.m{fill:#27debf;}.j{fill:#3aa473;}.k{opacity:0.1;}.l{fill:#11998e;}.m,.n{mix-blend-mode:multiply;isolation:isolate;}.n{fill:url(#a);}.o{fill:#41b680;}.p{fill:#f5f5f5;}.q{fill:#e6e7e8;}.r{fill:#023d4d;}.s{fill:#032c35;}.t{fill:#455a64;}.u{fill:#263238;}.v{fill:#f0f0f0;}.w{fill:#ffa8a7;}.x{fill:#f28f8f;}</style><linearGradient id="a" y1="0.5" x2="1" y2="0.5" gradientUnits="objectBoundingBox"><stop offset="0" stop-color="#41b680"/><stop offset="1"/></linearGradient></defs><g transform="translate(-21.414 -76.69)"><g transform="translate(21.414 200.763)"><path class="a" d="M90.89,408.95c92.635,48.393,242.825,48.394,335.457,0s92.635-126.854,0-175.246-242.824-48.394-335.459,0S-1.745,360.557,90.89,408.95Z" transform="translate(-21.414 -197.409)"/></g><g transform="translate(340.265 377.638)"><path class="b" d="M341.935,398.083c13.718,6.539,35.958,6.539,49.676,0s13.718-17.137,0-23.676-35.958-6.538-49.676,0S328.218,391.547,341.935,398.083Z" transform="translate(-331.648 -369.504)"/></g><g transform="translate(46.683 202.357)"><path class="c" d="M76.085,256.343l6.029-3.444s2.892-15.936.73-29.634c-3.041-19.26-16.155-25.9-20.916-23.988s-5.882,7.62,2.718,18.748C69.721,224.591,76.248,238.47,76.085,256.343Z" transform="translate(-45.659 -198.961)"/><path class="d" d="M78.7,250.329h-.036a.6.6,0,0,1-.563-.634c1.4-23.989-3.187-38.187-15.321-47.473a.6.6,0,1,1,.729-.953c12.489,9.558,17.211,24.061,15.79,48.5A.6.6,0,0,1,78.7,250.329Z" transform="translate(-45.54 -198.9)"/><path class="c" d="M58.229,266.107c-.953.547-2.916-.649-3.668-1.153a9.093,9.093,0,0,1-3.024-3.471,8.521,8.521,0,0,1-.757-5.117,20.167,20.167,0,0,1,.647-2.721q.379-1.321.76-2.641a6.682,6.682,0,0,0,.386-2.664c-.23-1.806-1.835-3.071-3.292-4.163-1.612-1.207-3.29-2.8-3.281-4.974a7.65,7.65,0,0,1,1.916-4.553c1.04-1.317,2.273-2.48,3.213-3.871a5.335,5.335,0,0,0,1.095-3.378,5.553,5.553,0,0,0-.736-2.111,29.937,29.937,0,0,1-2.31-4.234,4.26,4.26,0,0,1,.733-4.5,4.984,4.984,0,0,1,3.742-.93,8.578,8.578,0,0,1,3.48,1.225c3.452,1.919,5.423,6.007,9.086,7.485a36.805,36.805,0,0,0,4.434,1.083,5.471,5.471,0,0,1,3.657,2.5c1.345,2.687-1.15,6-.206,8.847.837,2.523,3.289,3.489,4.665,5.763a5.4,5.4,0,0,1,.644,3.3,15.841,15.841,0,0,1-1.393,5.582,39.77,39.77,0,0,1-3.064,5.028C74.9,256.5,58.374,266.023,58.229,266.107Z" transform="translate(-46 -198.498)"/><path class="d" d="M67.918,260.946a.643.643,0,0,1-.076-.005.6.6,0,0,1-.52-.67c1.743-13.82-4.847-32.455-14.69-41.54a.6.6,0,0,1,.813-.881c10.264,9.473,16.883,28.172,15.067,42.57A.6.6,0,0,1,67.918,260.946Z" transform="translate(-45.821 -198.44)"/><path class="d" d="M66.226,242.354a.6.6,0,0,1-.36-.12c-5.25-3.937-13.621-3.219-13.7-3.211a.594.594,0,0,1-.652-.543.6.6,0,0,1,.543-.652c.363-.035,8.918-.766,14.532,3.446a.6.6,0,0,1-.36,1.079Z" transform="translate(-45.847 -197.883)"/><path class="d" d="M65.031,239.189h-.024a.6.6,0,0,1-.576-.623,15.772,15.772,0,0,1,5.549-11.123.6.6,0,0,1,.739.945,14.832,14.832,0,0,0-5.091,10.225A.6.6,0,0,1,65.031,239.189Z" transform="translate(-45.488 -198.173)"/></g><g transform="translate(372.773 133.566)"><rect class="e" width="23.388" height="1.912" transform="matrix(0.453, -0.892, 0.892, 0.453, 42.863, 81.324)"/><rect class="e" width="1.912" height="19.613" transform="translate(32.177 59.806) rotate(-31.757)"/><path class="e" d="M407.452,187.31v50.261a.794.794,0,0,1-.469.653,2.5,2.5,0,0,1-2.262,0,.794.794,0,0,1-.469-.653V187.31Z" transform="translate(-362.139 -130.493)"/><circle class="f" cx="23.341" cy="23.341" r="23.341" transform="translate(29.4 28.72) rotate(-22.832)"/><path class="g" d="M429.572,166.753c3.01-9.479,6.219-13.186,4.183-14.343a23.341,23.341,0,1,0,6.507,35.165C433.347,189.594,425.669,179.047,429.572,166.753Z" transform="translate(-362.287 -131.547)"/><circle class="h" cx="16.404" cy="16.404" r="16.404" transform="translate(0 47.781) rotate(-45)"/><path class="i" d="M386.233,162.558a16.328,16.328,0,0,0-9.587,3.1c-.444,10.02,8.063,19.793,5.686,23.078-2.4,3.309-8.237,1.266-10.278-1.522a16.4,16.4,0,1,0,14.179-24.651Z" transform="translate(-363.034 -131.181)"/><path class="g" d="M386.233,162.558a16.328,16.328,0,0,0-9.587,3.1c-.444,10.02,8.063,19.793,5.686,23.078-2.4,3.309-8.237,1.266-10.278-1.522a16.4,16.4,0,1,0,14.179-24.651Z" transform="translate(-363.034 -131.181)"/><circle class="j" cx="30.094" cy="30.094" r="30.094" transform="translate(13.62)"/><path class="k" d="M435.915,168.894a30.092,30.092,0,1,1-44.1-33.076,30.269,30.269,0,0,0-7.049,5.522,30.086,30.086,0,0,0,51.147,27.554Z" transform="translate(-362.909 -131.924)"/></g><g transform="translate(46.567 76.69)"><path class="l" d="M440.275,256.908,227.633,379.675a4.92,4.92,0,0,1-4.45,0L48.112,278.6a4.919,4.919,0,0,1-2.225-3.854v-4.5a4.921,4.921,0,0,1,2.225-3.854L260.755,143.619a4.914,4.914,0,0,1,4.45,0L440.276,244.7a4.919,4.919,0,0,1,2.225,3.854v4.5A4.917,4.917,0,0,1,440.275,256.908Z" transform="translate(-45.887 -74.846)"/><path class="g" d="M440.275,256.908,227.633,379.675a4.92,4.92,0,0,1-4.45,0L48.112,278.6a4.919,4.919,0,0,1-2.225-3.854v-4.5a4.921,4.921,0,0,1,2.225-3.854L260.755,143.619a4.914,4.914,0,0,1,4.45,0L440.276,244.7a4.919,4.919,0,0,1,2.225,3.854v4.5A4.917,4.917,0,0,1,440.275,256.908Z" transform="translate(-45.887 -74.846)"/><path class="m" d="M437.648,245.835a4.917,4.917,0,0,0-2.224-3.853l-1.95-1.125L220.554,363.781v13.71a4.555,4.555,0,0,0,2.226-.532L435.423,254.192a4.916,4.916,0,0,0,2.225-3.854Z" transform="translate(-41.035 -72.13)"/><path class="n" d="M437.648,245.835a4.917,4.917,0,0,0-2.224-3.853l-1.95-1.125L220.554,363.781v13.71a4.555,4.555,0,0,0,2.226-.532L435.423,254.192a4.916,4.916,0,0,0,2.225-3.854Z" transform="translate(-41.035 -72.13)"/><path class="o" d="M48.077,268.957,223.148,370.034a4.914,4.914,0,0,0,4.45,0L440.24,247.267a1.356,1.356,0,0,0,0-2.569L265.17,143.619a4.914,4.914,0,0,0-4.45,0L48.077,266.387A1.356,1.356,0,0,0,48.077,268.957Z" transform="translate(-45.852 -74.846)"/><path class="p" d="M140.2,291.531c4.9-2.826,4.9-7.451,0-10.278l-22.186-12.809a1.542,1.542,0,0,1,0-2.67l10.212-5.9-16.7-9.642L91.2,261.97c-4.9,2.826-4.89,7.443.011,10.258l22.248,12.783a1.542,1.542,0,0,1,0,2.672L99,296.034l16.782,9.594Z" transform="translate(-44.73 -71.869)"/><path class="q" d="M196.183,220.6l54.273-31.335V247.11l-54.273,31.335Z" transform="translate(-41.712 -73.563)"/><path class="r" d="M232.193,213.382l-18.65,10.732a2.461,2.461,0,0,0-1.113,1.927v21.534c0,.709.5,1,1.113.642l18.649-10.732a2.459,2.459,0,0,0,1.112-1.927V214.025C233.305,213.315,232.807,213.028,232.193,213.382Z" transform="translate(-41.261 -72.897)"/><path class="d" d="M231.109,235.622a1.518,1.518,0,0,0,.089-.2l0-19.2-16.679,9.6a1.368,1.368,0,0,0-.088.2l0,19.2Z" transform="translate(-41.205 -72.814)"/><path class="r" d="M233.306,223.3,212.43,235.32v2.412l20.875-12.016Z" transform="translate(-41.261 -72.617)"/><path class="r" d="M223.66,218.012v24.156l-2.088,1.153v-24.1Z" transform="translate(-41.007 -72.764)"/><path class="s" d="M196.183,276.881V281.7l54.273-31.335v-4.821Z" transform="translate(-41.712 -71.999)"/><path class="c" d="M303.262,220.6l-54.273-31.335V247.11l54.273,31.335Z" transform="translate(-40.245 -73.563)"/><path class="r" d="M266.349,213.382,285,224.114a2.461,2.461,0,0,1,1.113,1.927v21.534c0,.709-.5,1-1.113.642L266.35,237.486a2.461,2.461,0,0,1-1.112-1.927V214.025C265.237,213.315,265.735,213.028,266.349,213.382Z" transform="translate(-39.794 -72.897)"/><path class="d" d="M267.322,235.622a1.514,1.514,0,0,1-.089-.2l0-19.2,16.68,9.6a1.52,1.52,0,0,1,.087.2l0,19.2Z" transform="translate(-39.739 -72.814)"/><path class="r" d="M265.237,223.3l20.875,12.017v2.412l-20.875-12.016Z" transform="translate(-39.794 -72.617)"/><path class="r" d="M274.374,218.012v24.156l2.088,1.153v-24.1Z" transform="translate(-39.54 -72.764)"/><path class="r" d="M303.262,276.881V281.7l-54.273-31.335v-4.821Z" transform="translate(-40.245 -71.999)"/><path class="q" d="M301.8,222.159l45.924-89.183,33.4,43.387,0,57.849-79.323,45.8Z" transform="translate(-38.778 -75.126)"/><path class="r" d="M332.751,216.226,314.1,226.958a2.461,2.461,0,0,0-1.113,1.927v21.534c0,.709.5,1,1.113.642l18.649-10.732a2.461,2.461,0,0,0,1.112-1.927V216.868C333.864,216.159,333.366,215.872,332.751,216.226Z" transform="translate(-38.468 -72.818)"/><path class="d" d="M331.668,238.466a1.49,1.49,0,0,0,.089-.206l0-19.2-16.68,9.6a1.529,1.529,0,0,0-.087.2l0,19.2Z" transform="translate(-38.412 -72.735)"/><path class="r" d="M333.864,226.148l-20.875,12.017v2.412l20.875-12.016Z" transform="translate(-38.467 -72.538)"/><path class="r" d="M324.219,220.856v24.156l-2.088,1.153v-24.1Z" transform="translate(-38.214 -72.685)"/><path class="r" d="M369.31,195.109l-18.65,10.732a2.457,2.457,0,0,0-1.112,1.927V229.3c0,.71.5,1,1.112.642l18.649-10.732a2.458,2.458,0,0,0,1.113-1.927V195.751C370.422,195.041,369.925,194.753,369.31,195.109Z" transform="translate(-37.452 -73.405)"/><path class="d" d="M368.226,217.348a1.518,1.518,0,0,0,.089-.2l0-19.2-16.679,9.6a1.482,1.482,0,0,0-.088.2l0,19.2Z" transform="translate(-37.396 -73.322)"/><path class="r" d="M370.423,205.03l-20.875,12.016v2.412l20.875-12.016Z" transform="translate(-37.452 -73.125)"/><path class="r" d="M360.777,199.739v24.156l-2.088,1.153v-24.1Z" transform="translate(-37.198 -73.272)"/><path class="r" d="M337.436,164.208l10.3-5.95c.615-.354,1.113-.067,1.113.642v21.534a2.458,2.458,0,0,1-1.113,1.927l-10.3,5.95c-.615.355-1.113.067-1.113-.642V166.135A2.458,2.458,0,0,1,337.436,164.208Z" transform="translate(-37.819 -74.428)"/><path class="d" d="M338.323,166.051a2.037,2.037,0,0,1,.131-.178l8.278-4.778,0,19.256a1.684,1.684,0,0,1-.13.178l-8.28,4.78Z" transform="translate(-37.764 -74.345)"/><path class="r" d="M346.736,169.337l-8.412,4.86v2.41l8.412-4.86Z" transform="translate(-37.764 -74.116)"/><path class="s" d="M301.8,277.271l79.323-45.8V236.3l-79.323,45.8Z" transform="translate(-38.778 -72.39)"/><path class="c" d="M198.327,222.159,152.4,132.975,119,176.362V234.21l79.323,45.8Z" transform="translate(-43.856 -75.126)"/><path class="s" d="M127.128,237.337V193.951l16.7,9.641v43.387Z" transform="translate(-43.63 -73.433)"/><path class="r" d="M160.737,213.382l18.649,10.732a2.461,2.461,0,0,1,1.113,1.927v21.534c0,.709-.5,1-1.113.642l-18.648-10.732a2.46,2.46,0,0,1-1.113-1.927V214.025C159.624,213.315,160.122,213.028,160.737,213.382Z" transform="translate(-42.728 -72.897)"/><path class="d" d="M161.71,235.622a1.394,1.394,0,0,1-.089-.2l0-19.2,16.679,9.6a1.49,1.49,0,0,1,.088.2l0,19.2Z" transform="translate(-42.672 -72.814)"/><path class="r" d="M159.624,223.3,180.5,235.32v2.412l-20.875-12.016Z" transform="translate(-42.728 -72.617)"/><path class="r" d="M168.762,218.012v24.156l2.088,1.153v-24.1Z" transform="translate(-42.474 -72.764)"/><path class="r" d="M160.88,164.208l-10.3-5.95c-.615-.354-1.112-.067-1.112.642v21.534a2.458,2.458,0,0,0,1.113,1.927l10.3,5.95c.615.355,1.113.067,1.113-.642V166.135A2.458,2.458,0,0,0,160.88,164.208Z" transform="translate(-43.01 -74.428)"/><path class="d" d="M159.882,166.051a2.036,2.036,0,0,0-.132-.178l-8.278-4.778,0,19.256a1.684,1.684,0,0,0,.129.178l8.28,4.78Z" transform="translate(-42.954 -74.345)"/><path class="r" d="M151.47,169.337l8.412,4.86v2.41l-8.412-4.86Z" transform="translate(-42.954 -74.116)"/><path class="t" d="M304.163,226.6l-55.173-31.866V79.035l101.1,58.38Z" transform="translate(-40.245 -76.625)"/><path class="t" d="M346.5,132.975l-.956,1.858,36.617,40.222,1.913-1.1Z" transform="translate(-37.563 -75.126)"/><path class="s" d="M382.16,174.96l-2.261,1.306L345.72,139.082l1.365-2.65Z" transform="translate(-37.558 -75.03)"/><path class="r" d="M303.262,223.722l-54.273-31.335V76.69l100.2,57.849Z" transform="translate(-40.245 -76.69)"/><path class="r" d="M196.548,226.6l55.173-31.866V79.035l-101.1,58.38Z" transform="translate(-42.978 -76.625)"/><path class="r" d="M152.516,132.975l.956,1.858-36.617,40.222-1.913-1.1Z" transform="translate(-43.969 -75.126)"/><path class="u" d="M116.8,174.96l2.261,1.306,34.179-37.184-1.365-2.65Z" transform="translate(-43.917 -75.03)"/><path class="s" d="M197.424,223.722,251.7,192.388V76.69L151.5,134.539Z" transform="translate(-42.953 -76.69)"/><path class="v" d="M197.2,163.1l11.481,22.3V161.3L197.2,154.668Z" transform="translate(-41.684 -74.524)"/><path class="c" d="M208.369,161.7l12.524-21.693,8.35,9.642v24.1l-20.874,12.052Z" transform="translate(-41.374 -74.931)"/><path class="r" d="M214.789,158.659l7.724-4.463c.461-.266.835-.05.835.482v16.15a1.841,1.841,0,0,1-.835,1.445l-7.724,4.463c-.461.266-.835.05-.835-.482V160.1A1.845,1.845,0,0,1,214.789,158.659Z" transform="translate(-41.218 -74.54)"/><path class="d" d="M215.454,160.041a1.514,1.514,0,0,1,.1-.135l6.209-3.583,0,14.442a1.355,1.355,0,0,1-.1.134l-6.21,3.585Z" transform="translate(-41.177 -74.478)"/><path class="r" d="M221.763,162.506l-6.309,3.645v1.808l6.309-3.645Z" transform="translate(-41.177 -74.306)"/><path class="u" d="M220.554,140.011l4.175,2.41,8.35,9.642-4.175-2.41Z" transform="translate(-41.035 -74.931)"/><path class="u" d="M220.554,139.01l4.175,2.41,8.35,9.642-4.175-2.41Z" transform="translate(-41.035 -74.959)"/><path class="e" d="M225.519,142.617l-16.7,24.1-16.7-9.642,16.7-24.1Z" transform="translate(-41.825 -75.126)"/><path class="r" d="M225.519,141.616l-16.7,24.1-16.7-9.642,16.7-24.1Z" transform="translate(-41.825 -75.154)"/><path class="r" d="M224.617,141.355v1.029l8.35,9.642V151Z" transform="translate(-40.922 -74.894)"/><path class="t" d="M225.068,141.355l-16.7,24.1v1.029l16.7-24.1Z" transform="translate(-41.374 -74.894)"/><path class="u" d="M192.12,155.427v1.029l16.7,9.642v-1.029Z" transform="translate(-41.825 -74.503)"/><path class="q" d="M301.091,163.1,289.61,185.4V161.3l11.481-6.629Z" transform="translate(-39.117 -74.524)"/><path class="c" d="M290.174,161.7l-12.525-21.693-8.35,9.642v24.1l20.874,12.052Z" transform="translate(-39.681 -74.931)"/><path class="r" d="M283.443,158.659,275.72,154.2c-.461-.266-.835-.05-.835.482v16.15a1.843,1.843,0,0,0,.834,1.445l7.725,4.463c.46.266.833.05.833-.482V160.1A1.845,1.845,0,0,0,283.443,158.659Z" transform="translate(-39.526 -74.54)"/><path class="d" d="M282.695,160.041c-.008-.005-.064-.1-.1-.135l-6.209-3.583,0,14.442a1.28,1.28,0,0,0,.1.134l6.211,3.585Z" transform="translate(-39.484 -74.478)"/><path class="r" d="M276.385,162.506l6.309,3.645v1.808l-6.309-3.645Z" transform="translate(-39.484 -74.306)"/><path class="u" d="M277.762,140.011l-4.175,2.41-8.35,9.642,4.175-2.41Z" transform="translate(-39.794 -74.931)"/><path class="u" d="M277.762,139.01l-4.175,2.41-8.35,9.642,4.175-2.41Z" transform="translate(-39.794 -74.959)"/><path class="e" d="M273.362,142.617l16.7,24.1,16.7-9.642-16.7-24.1Z" transform="translate(-39.568 -75.126)"/><path class="s" d="M273.362,141.616l16.7,24.1,16.7-9.642-16.7-24.1Z" transform="translate(-39.568 -75.154)"/><path class="s" d="M273.587,141.355v1.029l-8.35,9.642V151Z" transform="translate(-39.794 -74.894)"/><path class="t" d="M273.362,141.355l16.7,24.1v1.029l-16.7-24.1Z" transform="translate(-39.568 -74.894)"/><path class="u" d="M306.309,155.427v1.029l-16.7,9.642v-1.029Z" transform="translate(-39.117 -74.503)"/><path class="s" d="M196.634,276.034l-16.7,9.642V290.5l16.7-9.642Z" transform="translate(-42.163 -71.153)"/><path class="t" d="M182.079,286.652l-79.323-45.8v4.821l79.323,45.8Z" transform="translate(-44.307 -72.13)"/><path class="r" d="M119.456,231.474l-16.7,9.642,79.323,45.8,16.7-9.642Z" transform="translate(-44.307 -72.39)"/><path class="s" d="M177.868,281.161a1.068,1.068,0,0,0,.62.846,3.327,3.327,0,0,0,3.01,0,1.066,1.066,0,0,0,.619-.846h0V221.6h-4.257v59.562Z" transform="translate(-42.221 -72.665)"/><path class="s" d="M110.963,242.713a1.067,1.067,0,0,0,.62.845,3.327,3.327,0,0,0,3.01,0,1.067,1.067,0,0,0,.62-.845h0V183.15H110.96v59.563Z" transform="translate(-44.079 -73.733)"/><path class="r" d="M198.891,221.051l-83.5-48.207-16.7,9.641,83.5,48.208Z" transform="translate(-44.42 -74.019)"/><path class="u" d="M179.934,229.39v2.41l16.7-9.641v-2.41Z" transform="translate(-42.163 -72.716)"/><path class="e" d="M182.191,230.432l-83.5-48.208v2.41l83.5,48.208Z" transform="translate(-44.42 -73.758)"/></g><g transform="translate(56.615 102.569)"><path class="c" d="M120.132,112.418l-2.97,1.142v-6.543c0-5.187-4.138-6.431-8.629-3.838h0c-4.492,2.594-8.134,8.9-8.134,14.089v.95a4.363,4.363,0,0,0-3.775.582h0a12.94,12.94,0,0,0-5.853,10.139v.432l-4.141,2.391a8.519,8.519,0,0,0-3.855,6.676c0,2.458,1.726,3.454,3.855,2.225l33.5-19.343a8.52,8.52,0,0,0,3.854-6.676C123.986,112.186,122.26,111.189,120.132,112.418Z" transform="translate(-54.911 -101.869)"/><path class="c" d="M87.258,114.325l-5.385,3.108a6.483,6.483,0,0,0,.045-.712v-1.56c0-2.776-1.949-3.9-4.353-2.513a8.418,8.418,0,0,0-2.594,2.494c-.395-3.49-3.133-4.79-6.46-2.871A14.4,14.4,0,0,0,62,123.551v2.334a6.156,6.156,0,0,0,.551,2.7l-4.472,2.583a5.336,5.336,0,0,0-2.415,4.182c0,1.54,1.081,2.164,2.415,1.394L87.258,119.9a5.335,5.335,0,0,0,2.414-4.182C89.672,114.179,88.592,113.555,87.258,114.325Z" transform="translate(-55.664 -101.605)"/></g><g transform="translate(322.395 231.856)"><rect class="w" width="5.788" height="8.43" transform="translate(65.079 152.696)"/><rect class="w" width="5.789" height="8.43" transform="translate(44.723 142.462) rotate(-1.97)"/><path class="r" d="M383.685,296.166c0,5.527.715,41.285.715,41.285.135,1.59,1.626,4.523,1.3,10.631-.439,8.3-1.155,31.351-1.155,31.351s-2.714,2.691-6.547,0c0,0-5.241-31.323-6.279-39.546-.9-7.177-2.441-26.675-2.441-26.675l-5.363,22.95s.944,5.4,1.151,9.2-.983,25.8-.983,25.8a6.325,6.325,0,0,1-6.3.239s-4.651-32.133-5.248-35.573,4.07-39.668,4.07-39.668Z" transform="translate(-313.199 -225.76)"/><path class="w" d="M363.707,258.665c-2.371.279-4.262,1.561-7.709,7.421-2.753,4.68-8.514,13.669-8.514,13.669-.527-.415-13.277-7.826-16.1-11.332a20.4,20.4,0,0,0-2.131-3.761q-1.622-2.117-3.351-4.148a1.224,1.224,0,0,0-.294-.275c-.423-.25-.994.122-1.134.593a2.468,2.468,0,0,0,.168,1.443c.2.613.824,1.467-.043,1.609a4.108,4.108,0,0,1-2.163-.483q-1.665-.717-3.267-1.573a4.94,4.94,0,0,0-2.178-.776,2.793,2.793,0,0,0-2.546,1.927,4.156,4.156,0,0,0,.4,3.291,8.366,8.366,0,0,0,2.291,2.5c1.95,1.511,4.532,2.2,6.9,2.828a10.59,10.59,0,0,1,3.329,1.559c1.886,1.319,11.78,10.515,16.356,14.109,2.183,1.715,5.286,2.672,7.768.157s12.464-15.833,12.464-15.833l6.287-12.419A28.517,28.517,0,0,0,363.707,258.665Z" transform="translate(-314.261 -226.803)"/><path class="r" d="M362.592,258.785c-1.679.6-4.722,2.909-8.971,9.688s-7.071,10.934-7.071,10.934l-13.571-9.618a12.72,12.72,0,0,0-4.351,5.565s14.481,12.537,15.624,13.437c2.513,1.981,3.811,2.356,6.033.48s9.608-12.859,9.608-12.859Z" transform="translate(-313.861 -226.798)"/><path class="o" d="M374.861,258.925l.078.02a11.474,11.474,0,0,1,8.634,11.164v27.1c-4.059,4.415-18.209,6.473-27.074,0V268.99c0-4.508,2.506-9.925,9.423-10.327Z" transform="translate(-313.087 -226.801)"/><path class="u" d="M376.283,236.467a3.085,3.085,0,0,1,2.553.9c1.1,1.121.868,3.2,0,7.964l-3.388.389Z" transform="translate(-312.561 -227.419)"/><path class="u" d="M357.126,235.14a5.31,5.31,0,0,1-2.119-.43c-1.04-.6-1.311.584-.742,1.611a4.838,4.838,0,0,0,3.931,2.618c.031-.147.972-2.646.972-2.646Z" transform="translate(-313.158 -227.471)"/><path class="w" d="M375.2,245.822c.5.3,1.22-.666,1.841-1.315a2.182,2.182,0,0,1,3.655.592c1.03,2.17-1.307,5.054-2.679,6.006a2.408,2.408,0,0,1-2.816.245l-.359,8.294s-1.688,3.088-6.55,3.81c-2.731.4-3.989-2.1-2.389-4.072l.007-3.016a11.557,11.557,0,0,1-3.7.19c-.635-.17-2.151-2-3.128-4.051-1.1-2.3-2.925-6.388-1.3-13.3,1.747-7.424,9.723-7.651,14.478-4.657S375.2,245.822,375.2,245.822Z" transform="translate(-313.07 -227.521)"/><path class="u" d="M375.249,246.81c.253.005,1.215-1.591,1.841-2.16.867-.789-.252-7.939-.252-7.939S377.716,234,376,232.2s-5.037-1.5-7.467-1.583a21.824,21.824,0,0,1-8.685-1.742c-3.451-1.5-3.708-1.676-4.137-.161s-.589,4.986,1.47,7.312l1.713.629s.925.821,4.143,1.213a47.522,47.522,0,0,0,8.916-.169c.933-.128,1.133.777,1.636,3.248C374.032,243.117,374.4,246.793,375.249,246.81Z" transform="translate(-313.117 -227.663)"/><path class="u" d="M376.261,237.077l3.04-1.632a1.674,1.674,0,0,0-2.3-.762A1.813,1.813,0,0,0,376.261,237.077Z" transform="translate(-312.544 -227.473)"/><path class="x" d="M365.675,255.835a34.584,34.584,0,0,0,6.088-1.747,5.2,5.2,0,0,0,2.179-2.156,7.1,7.1,0,0,1-1.238,2.544c-1.153,1.474-7.029,2.559-7.029,2.559Z" transform="translate(-312.832 -226.988)"/><path class="u" d="M366.73,244.4a.9.9,0,1,0,.9-.941A.919.919,0,0,0,366.73,244.4Z" transform="translate(-312.803 -227.224)"/><path class="u" d="M367.663,241.068l1.933,1.067a1.16,1.16,0,0,0-.451-1.54A1.077,1.077,0,0,0,367.663,241.068Z" transform="translate(-312.777 -227.307)"/><path class="x" d="M366.852,250.334l-2.064.774a1.084,1.084,0,0,0,1.4.685A1.155,1.155,0,0,0,366.852,250.334Z" transform="translate(-312.857 -227.033)"/><path class="u" d="M358.894,241.833l1.764-1.358a1.068,1.068,0,0,0-1.533-.235A1.17,1.17,0,0,0,358.894,241.833Z" transform="translate(-313.027 -227.319)"/><path class="u" d="M359.416,244.147a.9.9,0,1,0,.9-.942A.92.92,0,0,0,359.416,244.147Z" transform="translate(-313.006 -227.231)"/><path class="x" d="M363.981,243.288l-.3,5.435-2.838-.967Z" transform="translate(-312.967 -227.229)"/><path class="r" d="M377.828,381.677v-.828c-.554.242-1.841,5.151-4.137,7.246-1.826,1.666-4.317,3.589-4.951,5.446-.659,1.931,3.469,3,5.175,2.695,1.981-.351,5.417-1.747,6.28-3.04s1.266-3.2,1.967-4.151,2.316-2.006,2.695-3.1a7,7,0,0,0-.332-3.038c-.268-1.024-.559-2.149-.909-2.053,0,.125,0,.631,0,.631a4.579,4.579,0,0,1-2.894.978C379.875,382.491,377.82,382.322,377.828,381.677Z" transform="translate(-312.749 -223.408)"/><path class="r" d="M358.369,372.744c-.3.01-.546.435-1.209,1.152a12.661,12.661,0,0,1-3.405,2.45c-2.168,1.084-6.382,2.753-8.289,3.613-1.191.536-1.135,1.976.1,2.794s4.2,1.409,7.775.612c1.945-.436,4.477-2.231,6.079-2.135s4.6.074,5.784-.741.71-2.557.375-4.054c-.365-1.633-.887-4.132-1.428-4.021l.017.514c-.7,1.053-4.238,1.484-5.768.708Z" transform="translate(-313.418 -223.642)"/><path class="u" d="M369.009,312.852a46.618,46.618,0,0,1-6.69-3.684,17.42,17.42,0,0,0,5.164,4.287l-2.809,17.929Z" transform="translate(-312.926 -225.399)"/><path class="r" d="M365.986,258.692a12.617,12.617,0,0,0-4.028,6.237c-.859,3.718-1,45.256-1,45.256s-4.409-.815-6.475-2.437V269.791c0-5.189,1.257-10.843,11.494-11.71Z" transform="translate(-313.143 -226.818)"/><path class="r" d="M374.5,258.785s-4.95,3.144-5.016,17.529c-.057,12.437-.311,34.248-.311,34.248s8.643,1.756,14.806-1.926c0,0-.7-31.154-.815-35.825-.134-5.349,1.43-9.891-1.579-11.4A45.9,45.9,0,0,0,374.5,258.785Z" transform="translate(-312.735 -226.798)"/><path class="w" d="M391.491,308.518l-5.942-.995c0,.988-.013,1.869-.047,2.589a5.717,5.717,0,0,1-1.475,2.472,16.338,16.338,0,0,0-2.557,3.973c-.679,1.171-1.4,1.6-1.2,1.869a1.537,1.537,0,0,0,2.08.216,10.755,10.755,0,0,0,1.9-1.715,14.332,14.332,0,0,1-1.309,4.392c-1.521,3.172-1.223,4.822,3.151,3.806,2.74-.636,4.514-2.851,5.115-9.374A50.462,50.462,0,0,0,391.491,308.518Z" transform="translate(-312.428 -225.444)"/><path class="r" d="M378.513,260.148a24.39,24.39,0,0,1,5.247,2.606c1.307,1.045,8.9,22.819,9.2,24.779s-.827,22.582-.827,22.582a7.06,7.06,0,0,1-6.9.445l-1.218-20.677L378,274.231S375.015,265.743,378.513,260.148Z" transform="translate(-312.523 -226.76)"/><path class="s" d="M375.9,266.439l-2.691,3.331,1.346,3.793-3.538,9.066,4.266-9.066-1.493-3.58Z" transform="translate(-312.684 -226.585)"/><path class="s" d="M358.472,264.692l.585,3.444-2.331,3.034,3.241,10.207-2.509-10.095,2.15-2.837Z" transform="translate(-313.081 -226.634)"/></g></g></svg>